<svg width="24.000000" height="24.000000" viewBox="0 0 24 24" fill="none" xmlns="http://www.w3.org/2000/svg" xmlns:xlink="http://www.w3.org/1999/xlink">
	<desc>
			Created with Pixso.
	</desc>
	<defs>
		<filter id="filter_6_128_dd" x="0.000000" y="0.000000" width="24.000000" height="24.000000" filterUnits="userSpaceOnUse" color-interpolation-filters="sRGB">
			<feFlood flood-opacity="0" result="BackgroundImageFix"/>
			<feColorMatrix in="SourceAlpha" type="matrix" values="0 0 0 0 0 0 0 0 0 0 0 0 0 0 0 0 0 0 127 0" result="hardAlpha"/>
			<feOffset dx="0" dy="4"/>
			<feGaussianBlur stdDeviation="1.33333"/>
			<feComposite in2="hardAlpha" operator="out" k2="-1" k3="1"/>
			<feColorMatrix type="matrix" values="0 0 0 0 0 0 0 0 0 0 0 0 0 0 0 0 0 0 0.25 0"/>
			<feBlend mode="normal" in2="BackgroundImageFix" result="effect_dropShadow_1"/>
			<feBlend mode="normal" in="SourceGraphic" in2="effect_dropShadow_1" result="shape"/>
		</filter>
		<clipPath id="clip6_128">
			<rect id="teenyicons:button-solid" width="16.000000" height="16.000000" transform="translate(4.000000 0.000000)" fill="white" fill-opacity="0"/>
		</clipPath>
	</defs>
	<g filter="url(#filter_6_128_dd)">
		<rect id="teenyicons:button-solid" width="16.000000" height="16.000000" transform="translate(4.000000 0.000000)" fill="#FFFFFF" fill-opacity="0"/>
		<g clip-path="url(#clip6_128)">
			<path id="Vector" d="M8.26 6.4C7.41 6.4 6.6 6.06 6 5.46C5.4 4.86 5.06 4.04 5.06 3.2C5.06 2.35 5.4 1.53 6 0.93C6.6 0.33 7.41 0 8.26 0L15.73 0C16.58 0 17.39 0.33 17.99 0.93C18.59 1.53 18.93 2.35 18.93 3.2C18.93 4.04 18.59 4.86 17.99 5.46C17.39 6.06 16.58 6.4 15.73 6.4L13.6 6.4L13.6 3.73C13.6 3.02 13.31 2.34 12.81 1.84C12.31 1.34 11.64 1.06 10.93 1.06C10.22 1.06 9.54 1.34 9.04 1.84C8.54 2.34 8.26 3.02 8.26 3.73L8.26 6.4Z" fill="#FFFFFF" fill-opacity="1.000000" fill-rule="nonzero"/>
			<path id="Vector" d="M10.93 2.13C10.5 2.13 10.1 2.3 9.8 2.6C9.5 2.9 9.33 3.3 9.33 3.73L9.33 8.58C8.73 8.7 8.18 9.03 7.8 9.51C7.41 9.98 7.19 10.58 7.19 11.2C7.19 12.47 7.7 13.69 8.6 14.59C9.5 15.49 10.72 16 12 16L12.53 16C13.94 16 15.3 15.43 16.3 14.43C17.3 13.43 17.86 12.08 17.86 10.66L17.86 9.75C17.86 9.14 17.62 8.56 17.19 8.13C16.76 7.7 16.18 7.46 15.57 7.46L12.53 7.46L12.53 3.73C12.53 3.3 12.36 2.9 12.06 2.6C11.76 2.3 11.35 2.13 10.93 2.13Z" fill="#FFFFFF" fill-opacity="1.000000" fill-rule="nonzero"/>
		</g>
	</g>
</svg>
